<svg width="101" height="56" viewBox="0 0 101 56" fill="none" xmlns="http://www.w3.org/2000/svg">
<path d="M99.04 52.0353C98.334 52.5828 97.5046 52.9491 96.6242 53.1022C95.7452 53.2599 94.8411 53.2034 93.9886 52.9375C92.2732 52.4272 90.7693 51.3759 89.7015 49.9408C87.8277 47.5613 86.9682 44.5398 87.3093 41.5314C87.4248 40.4957 87.6893 39.482 88.0945 38.5217C85.0483 41.4848 81.0999 43.3482 76.8743 43.8168C74.737 44.0777 72.5683 43.799 70.5667 43.0062C69.5621 42.616 68.6497 42.0215 67.8873 41.2603C67.125 40.4991 66.5294 39.5879 66.1382 38.5845C65.6386 37.0209 65.5175 35.3612 65.7849 33.7417C66.3264 28.6243 68.0648 23.7058 70.8598 19.3835C72.2233 17.2343 74.0978 15.4554 76.3162 14.2053C78.5347 12.9552 81.0281 12.2728 83.5745 12.2188C87.8616 12.3626 93.35 13.602 95.5223 18.2329C95.928 18.9832 96.0633 19.8499 95.9054 20.6879C95.7476 21.5259 95.3063 22.2843 94.6554 22.8359C94.0045 23.3875 93.1836 23.6988 92.3304 23.7177C91.4771 23.7366 90.6432 23.462 89.9685 22.9397C88.44 21.9539 87.2413 20.4608 85.6709 19.577C84.3382 18.8776 82.8456 18.5383 81.3411 18.5929C79.8367 18.6475 78.3726 19.094 77.0941 19.8882C74.5621 21.557 72.7325 24.0977 71.9538 27.0267C71.5089 28.4581 71.412 29.9748 71.6711 31.4511C71.8992 32.9075 72.6953 34.2143 73.8854 35.0858C74.9109 35.6365 76.0629 35.9096 77.2268 35.878C78.3907 35.8463 79.5261 35.511 80.5201 34.9053C82.4951 33.6871 84.3911 32.3456 86.197 30.8889C87.9981 29.4009 90.3163 28.6872 92.6433 28.9042C93.2295 28.9904 93.7868 29.2147 94.2691 29.5584C94.7515 29.9021 95.1452 30.3554 95.4177 30.8811C95.7576 31.8365 95.7296 32.8842 95.3391 33.8202C94.9172 34.7374 94.4445 35.6305 93.9232 36.4952C92.9379 38.1425 92.4169 40.0255 92.4156 41.9446C92.4001 42.9263 92.6212 43.8974 93.0603 44.7757C93.4994 45.6541 94.1437 46.414 94.9387 46.9913C95.7484 47.4622 96.61 47.8378 97.5062 48.1104C98.3281 48.3954 99.2336 48.602 99.8251 49.2871C99.9362 49.4011 100.019 49.5394 100.067 49.691C100.115 49.8426 100.128 50.0034 100.103 50.1605C100.064 50.5292 99.9497 50.886 99.7669 51.2086C99.584 51.5312 99.3366 51.8126 99.04 52.0353Z" fill="#AD335A"/>
<path d="M41.5148 39.6479C41.2253 40.4923 40.7328 41.2528 40.0806 41.8627C39.4329 42.4767 38.6463 42.9252 37.7878 43.1702C36.0726 43.687 34.2357 43.6338 32.5533 43.0185C29.6787 42.0603 27.2989 40.0069 25.9316 37.305C25.4583 36.3761 25.1224 35.3834 24.9344 34.3581C24.0192 38.5063 21.744 42.2306 18.4698 44.9404C16.8269 46.3308 14.8618 47.2882 12.7536 47.7253C11.6996 47.9499 10.6105 47.9536 9.55494 47.7363C8.49942 47.5189 7.50052 47.0851 6.62137 46.4623C5.34639 45.4279 4.33394 44.1073 3.66647 42.608C1.3024 38.0385 0.0472095 32.9776 0.00229164 27.834C-0.0415985 25.2888 0.545568 22.7723 1.71144 20.5088C2.87731 18.2454 4.58566 16.3053 6.68418 14.8616C10.3484 12.6285 15.6143 10.6517 19.9695 13.3215C20.7268 13.7221 21.3225 14.3715 21.6561 15.1602C21.9897 15.9488 22.0406 16.8282 21.8004 17.6501C21.5601 18.4719 21.0434 19.1857 20.3374 19.6709C19.6314 20.1562 18.7795 20.3832 17.9254 20.3136C16.1064 20.3267 14.2821 19.7383 12.4841 19.8612C10.9857 20.0097 9.55211 20.546 8.32474 21.4173C7.09737 22.2886 6.11873 23.4647 5.48548 24.8295C4.29178 27.6129 4.16141 30.7372 5.11906 33.6102C5.53448 35.0507 6.28822 36.3712 7.31757 37.4619C8.30832 38.5565 9.69253 39.2146 11.1676 39.2923C12.327 39.1902 13.4394 38.7864 14.3941 38.1211C15.3487 37.4559 16.1123 36.5525 16.6089 35.5008C17.5867 33.3959 18.4311 31.2318 19.1372 29.0211C19.8273 26.7879 21.3769 24.92 23.4452 23.828C23.982 23.5784 24.5706 23.4601 25.1622 23.4828C25.7539 23.5055 26.3316 23.6687 26.8476 23.9587C27.658 24.5692 28.2114 25.4596 28.3997 26.4559C28.5517 27.4539 28.6478 28.4596 28.6876 29.4683C28.7695 31.3852 29.3701 33.2441 30.4254 34.8471C30.9507 35.6787 31.6693 36.3712 32.5201 36.8656C33.3709 37.36 34.3287 37.6418 35.3119 37.6868C36.2476 37.6365 37.1742 37.4777 38.0731 37.2135C38.9159 36.9991 39.7874 36.6748 40.659 36.9233C40.8142 36.9582 40.9593 37.0285 41.0828 37.1288C41.2063 37.229 41.3049 37.3565 41.3709 37.5011C41.5399 37.8303 41.6399 38.1905 41.6646 38.5597C41.6894 38.9289 41.6384 39.2992 41.5148 39.6479Z" fill="#AD335A"/>
<path d="M82.9456 46.2177C81.1135 44.7037 78.5931 45.2816 76.6642 46.4348C74.6096 47.669 72.5472 49.7818 69.9718 49.7217C66.8704 49.6484 65.2346 46.5524 64.5305 43.9219C63.7689 41.0691 63.7977 38.0698 63.8003 35.1385C63.8003 26.6507 65.6324 18.3119 67.1268 9.99659C67.6739 6.9555 68.4224 2.118 64.9676 0.452326C61.3767 -1.27872 59.6153 2.31411 58.995 5.22446C57.8826 10.4542 58.1051 15.8094 58.0083 21.1255C57.9472 23.9896 57.9647 26.8529 58.0606 29.7153C58.1522 32.508 58.4113 35.2902 58.5841 38.0672C58.7306 40.3604 58.8694 42.6589 59.3405 44.9155C59.8404 47.3238 60.7224 49.6929 62.2195 51.6514C65.1456 55.4979 70.032 56.6563 74.5992 55.5136C77.1665 54.8406 79.5741 53.6637 81.6815 52.0515C83.0582 51.0212 84.4741 49.5255 83.9219 47.6559C83.7509 47.0882 83.4103 46.5864 82.9456 46.2177Z" fill="#AD335A"/>
<path d="M55.9287 29.7826C55.8371 32.5753 55.578 35.3575 55.4053 38.1345C55.2587 40.4303 55.12 42.7262 54.6489 44.9828C54.149 47.3911 53.2696 49.7602 51.7699 51.7187C48.8411 55.5652 43.9573 56.7236 39.3902 55.5809C36.8234 54.9077 34.416 53.7318 32.3078 52.1214C30.9338 51.0885 29.5126 49.5928 30.0675 47.7232C30.2398 47.1548 30.5823 46.6529 31.0489 46.285C32.881 44.7684 35.4015 45.3489 37.3173 46.502C39.3719 47.7363 41.4343 49.8491 44.0123 49.7863C47.1111 49.7157 48.7469 46.6223 49.451 43.9918C50.2152 41.1363 50.1838 38.1371 50.1838 35.2084C50.1838 33.5297 50.1105 31.8562 49.9823 30.1879C48.2611 31.2888 46.3759 32.1096 44.397 32.6197C40.3272 33.6369 35.7862 32.7923 32.8182 29.6937C31.3237 28.0833 30.2243 26.148 29.6068 24.0403C28.9211 21.8151 28.9551 19.6369 28.9708 17.3384C28.9446 15.1245 29.081 12.9116 29.3791 10.7176C29.51 9.59059 29.6879 8.4662 29.9261 7.34704C30.5438 4.43669 32.3811 1.07136 35.9746 2.80501C38.1601 3.85096 38.571 6.84498 38.2203 8.97348C37.7465 11.8315 36.5531 13.8764 35.7993 16.6586C35.158 19.012 34.5194 21.7916 35.5663 24.124C36.3908 25.9544 38.4898 26.7964 40.3952 26.799C41.9996 26.799 43.5359 26.2761 44.9859 25.6014C46.2474 25.0157 47.4645 24.4221 48.1999 23.1748C49.3541 21.2215 49.2678 19.195 48.8673 17.1606C48.4014 14.8072 47.297 12.5689 46.8337 10.2025C46.4149 8.05044 46.0852 5.80688 46.6217 3.64177C46.9567 2.29511 47.7393 1.1315 49.0139 0.517006C52.6074 -1.21404 54.3662 2.37617 54.9865 5.28652C56.0988 10.5163 55.8764 15.8741 55.9732 21.1875C56.0378 24.0534 56.0229 26.9184 55.9287 29.7826Z" fill="#AD335A"/>
</svg>
