<svg width="54" height="54" viewBox="0 0 54 54" fill="none" xmlns="http://www.w3.org/2000/svg">
<path d="M27 49.5C14.5736 49.5 4.5 39.4263 4.5 27C4.5 14.5736 14.5736 4.5 27 4.5C39.4263 4.5 49.5 14.5736 49.5 27C49.5 39.4263 39.4263 49.5 27 49.5ZM15.75 29.25C15.75 35.4632 20.7868 40.5 27 40.5C33.2132 40.5 38.25 35.4632 38.25 29.25H33.75C33.75 32.978 30.728 36 27 36C23.272 36 20.25 32.978 20.25 29.25H15.75ZM18 24.75C19.864 24.75 21.375 23.2389 21.375 21.375C21.375 19.511 19.864 18 18 18C16.136 18 14.625 19.511 14.625 21.375C14.625 23.2389 16.136 24.75 18 24.75ZM36 24.75C37.8639 24.75 39.375 23.2389 39.375 21.375C39.375 19.511 37.8639 18 36 18C34.1361 18 32.625 19.511 32.625 21.375C32.625 23.2389 34.1361 24.75 36 24.75Z" fill="#5A5A74"/>
</svg>
