<svg width="26" height="26" viewBox="0 0 26 26" fill="none" xmlns="http://www.w3.org/2000/svg">
<path d="M17.5701 25.5V15.6321H20.8742L21.3687 11.7959H17.5701V9.34667C17.5701 8.23599 17.8783 7.47906 19.4711 7.47906L21.5026 7.47812V4.04708C21.1511 4.00041 19.9454 3.89592 18.5425 3.89592C15.6135 3.89592 13.6085 5.68364 13.6085 8.96682V11.7959H10.2959V15.6321H13.6085V25.5H1.41667C0.63427 25.5 0 24.8658 0 24.0833V1.41667C0 0.63427 0.63427 0 1.41667 0H24.0833C24.8658 0 25.5 0.63427 25.5 1.41667V24.0833C25.5 24.8658 24.8658 25.5 24.0833 25.5H17.5701Z" fill="white"/>
</svg>
