<svg width="1440" height="2011" viewBox="0 0 1440 2011" fill="none" xmlns="http://www.w3.org/2000/svg">
<path d="M1440 1821.16H0V264.164H1440V1821.16Z" fill="#B44368"/>
<path d="M769.8 1382.28C766.075 1407.02 756.364 1430.47 741.515 1450.57C735.479 1459.02 727.772 1466.12 718.875 1471.44C709.979 1476.76 700.083 1480.19 689.808 1481.5C685.434 1482.29 680.936 1482.06 676.67 1480.8C672.405 1479.55 668.489 1477.32 665.235 1474.28C645.726 1458.15 639.386 1432.93 630.908 1410.1C622.728 1385.18 611.695 1361.29 598.031 1338.92C581.406 1317.03 559.773 1299.47 534.96 1287.72C510.146 1275.98 482.88 1270.4 455.465 1271.45C401.856 1272.69 349.582 1288.45 304.182 1317.07C280.354 1332.21 255.703 1346 230.345 1358.39C204.443 1369.9 175.194 1371.35 148.29 1362.43C133.435 1355.13 120.523 1344.39 110.618 1331.1C100.714 1317.82 94.1001 1302.36 91.3233 1286C83.7985 1220.99 102.28 1155.65 142.716 1104.29C182.276 1052.82 218.56 998.902 251.35 942.85C267.645 914.641 276.299 882.646 276.452 850.043C276.605 817.439 268.252 785.362 252.223 756.996C227.131 724.228 190.124 702.759 149.296 697.288C107.894 690.957 65.5847 694.621 25.8788 707.974C18.552 710.103 11.3187 712.469 4.18841 715.065L4.1884 582.218C70.2309 557.357 139.14 540.139 209.588 531.066C254.659 522.566 301.1 524.916 345.093 537.922C373.369 548.243 399.198 564.346 420.942 585.211C442.685 606.076 459.867 631.246 471.397 659.124C494.802 714.663 503.95 775.2 498.004 835.198C487.567 953.787 437.994 1065.49 357.132 1152.63C383.704 1140.68 411.855 1132.64 440.716 1128.76C524.543 1117.32 609.489 1139.49 677.138 1190.46C717.898 1219.45 748.211 1260.89 763.543 1308.6C771.507 1332.29 773.653 1357.57 769.8 1382.28Z" fill="#BC5173"/>
<path d="M883.779 1657.69C699.84 1661.98 511.671 1668.01 331.579 1624.24C208.062 1594.13 67.6615 1532.04 0.137573 1422.16L0.137451 1867.19C87.7993 1907.04 181.791 1933.86 276.533 1951.32C418.804 1977.7 563.233 1983.17 707.345 1989.14C881.85 1996.07 1056.8 2008.41 1232.18 2010.22C1302.13 2011 1370.07 2011.03 1440 2010.31L1440 1608.38C1255.09 1635.08 1071.17 1653.48 883.779 1657.69Z" fill="#BC5173"/>
<path d="M556.221 403.138C740.16 398.847 928.329 392.817 1108.42 436.593C1231.94 466.698 1372.34 528.786 1439.86 638.666L1439.86 143.64C1352.2 103.786 1258.21 76.9699 1163.47 59.5116C1021.2 33.1265 876.767 27.6587 732.655 21.6906C558.15 14.7612 383.195 2.41945 207.82 0.603547C137.872 -0.171378 69.9315 -0.200082 0 0.517455L4.69049e-06 452.445C184.914 425.753 368.829 407.343 556.221 403.138Z" fill="#BC5173"/>
</svg>
