<svg width="64" height="64" viewBox="0 0 64 64" fill="none" xmlns="http://www.w3.org/2000/svg">
<path d="M55.0633 48.8014L59.8753 48.3476L60.3291 53.1596L7.3973 58.1513L6.94351 53.3393L11.7555 52.8855L7.89825 11.9836C7.77294 10.6549 8.74857 9.47607 10.0774 9.35076L48.5732 5.72042C49.902 5.5951 51.0808 6.57073 51.2061 7.89951L55.0633 48.8014ZM28.2807 22.1984L23.4687 22.6522L23.9225 27.4642L28.7345 27.0104L29.1883 31.8224L34.0002 31.3686L33.5464 26.5566L38.3584 26.1028L37.9046 21.2908L33.0927 21.7446L32.6389 16.9327L27.8269 17.3864L28.2807 22.1984ZM38.2214 50.3896L43.0334 49.9358L41.672 35.4999L22.4241 37.3151L23.7854 51.751L28.5974 51.2972L27.6898 41.6733L37.3138 40.7657L38.2214 50.3896Z" fill="#3E3846"/>
</svg>
