<svg width="60" height="60" viewBox="0 0 60 60" fill="none" xmlns="http://www.w3.org/2000/svg">
<path d="M25.5668 42.2371L19.0199 41.2045C18.8137 38.3806 16.2979 35.6989 15.3521 34.0439C13.4655 30.7424 12.6473 26.8007 13.2858 22.7525C14.7773 13.2965 23.652 6.83991 33.108 8.33135C42.5641 9.8228 49.0206 18.6975 47.5292 28.1535C46.8903 32.2039 44.8968 35.7039 42.0833 38.2649C40.675 39.5466 37.4589 41.3219 36.3941 43.9449L29.8472 42.9123L31.535 32.2112L27.2546 31.5361L25.5668 42.2371ZM35.5927 48.2054L35.2552 50.3456C34.8823 52.7097 32.6637 54.3237 30.2996 53.9509L21.7388 52.6006C19.3748 52.2278 17.7606 50.0092 18.1335 47.6451L18.4711 45.5049L35.5927 48.2054Z" fill="#3E3846"/>
</svg>
