<svg width="58" height="58" viewBox="0 0 58 58" fill="none" xmlns="http://www.w3.org/2000/svg">
<path d="M29.0006 24.1673C34.3393 24.1673 38.6673 19.8394 38.6673 14.5007C38.6673 9.1619 34.3393 4.83398 29.0006 4.83398C23.6619 4.83398 19.334 9.1619 19.334 14.5007C19.334 19.8394 23.6619 24.1673 29.0006 24.1673ZM13.2923 31.4173C16.629 31.4173 19.334 28.7123 19.334 25.3757C19.334 22.0389 16.629 19.334 13.2923 19.334C9.9556 19.334 7.25065 22.0389 7.25065 25.3757C7.25065 28.7123 9.9556 31.4173 13.2923 31.4173ZM50.7506 25.3757C50.7506 28.7123 48.0457 31.4173 44.709 31.4173C41.3723 31.4173 38.6673 28.7123 38.6673 25.3757C38.6673 22.0389 41.3723 19.334 44.709 19.334C48.0457 19.334 50.7506 22.0389 50.7506 25.3757ZM29.0006 26.584C35.674 26.584 41.084 31.9939 41.084 38.6673V53.1673H16.9173V38.6673C16.9173 31.9939 22.3272 26.584 29.0006 26.584ZM12.084 38.6671C12.084 36.9926 12.3273 35.3748 12.7804 33.8475L12.3707 33.8833C8.13281 34.3424 4.83398 37.9322 4.83398 42.2921V53.1671H12.084V38.6671ZM53.1673 53.1671V42.2921C53.1673 37.792 49.6532 34.1126 45.2208 33.8475C45.674 35.3748 45.9173 36.9926 45.9173 38.6671V53.1671H53.1673Z" fill="#3E3846"/>
</svg>
