<svg width="28" height="28" viewBox="0 0 28 28" fill="none" xmlns="http://www.w3.org/2000/svg">
<path d="M15.4385 0C17.0141 0.0026041 17.8126 0.0109484 18.5025 0.0314872L18.7742 0.0403635C19.0881 0.051522 19.3978 0.0655223 19.7712 0.083023C21.261 0.151863 22.2773 0.387534 23.1698 0.734047C24.0926 1.0899 24.872 1.57058 25.6502 2.34878C26.4272 3.12697 26.908 3.90866 27.265 4.8292C27.6102 5.72057 27.846 6.73794 27.916 8.22782C27.9327 8.60117 27.9461 8.91086 27.9572 9.22481L27.966 9.49655C27.9864 10.1864 27.9958 10.985 27.9987 12.5607L27.9999 13.6045C28 13.7321 28 13.8637 28 13.9995L27.9999 14.3944L27.999 15.4385C27.9964 17.0141 27.9881 17.8127 27.9675 18.5025L27.9586 18.7742C27.9475 19.0883 27.9335 19.3979 27.916 19.7712C27.8471 21.2611 27.6102 22.2773 27.265 23.1698C26.9091 24.0927 26.4272 24.8721 25.6502 25.6503C24.872 26.4273 24.0891 26.908 23.1698 27.265C22.2773 27.6104 21.261 27.846 19.7712 27.916C19.3978 27.9327 19.0881 27.9462 18.7742 27.9572L18.5025 27.966C17.8126 27.9866 17.0141 27.9958 15.4385 27.9989L14.3945 28C14.2669 28 14.1353 28 13.9995 28H13.6046L12.5606 27.999C10.9849 27.9965 10.1864 27.9881 9.49651 27.9675L9.22479 27.9587C8.91083 27.9475 8.60114 27.9335 8.2278 27.916C6.73791 27.8473 5.72288 27.6104 4.82919 27.265C3.90748 26.9092 3.12695 26.4273 2.34876 25.6503C1.57057 24.8721 1.09106 24.0892 0.734045 23.1698C0.387533 22.2773 0.153025 21.2611 0.0830231 19.7712C0.0663905 19.3979 0.0528239 19.0883 0.0418335 18.7742L0.0330272 18.5025C0.0125446 17.8127 0.00320636 17.0141 0.000182253 15.4385L0 12.5607C0.00260409 10.985 0.0109344 10.1864 0.0314731 9.49655L0.0403634 9.22481C0.0515218 8.91086 0.0655225 8.60117 0.0830231 8.22782C0.151849 6.73677 0.387533 5.72173 0.734045 4.8292C1.08988 3.9075 1.57057 3.12697 2.34876 2.34878C3.12695 1.57058 3.90865 1.09106 4.82919 0.734047C5.72171 0.387534 6.73675 0.153026 8.2278 0.083023C8.60114 0.0664044 8.91083 0.052838 9.22479 0.0418476L9.49651 0.033041C10.1864 0.0125443 10.9849 0.00320603 12.5606 0.00018192L15.4385 0ZM13.9995 6.99928C10.1313 6.99928 6.99926 10.1347 6.99926 13.9995C6.99926 17.8677 10.1347 20.9997 13.9995 20.9997C17.8677 20.9997 20.9998 17.8643 20.9998 13.9995C20.9998 10.1313 17.8642 6.99928 13.9995 6.99928ZM13.9995 9.79938C16.3193 9.79938 18.1997 11.6792 18.1997 13.9995C18.1997 16.3192 16.3198 18.1996 13.9995 18.1996C11.6798 18.1996 9.79935 16.3199 9.79935 13.9995C9.79935 11.6797 11.6791 9.79938 13.9995 9.79938ZM21.3498 4.8992C20.3847 4.8992 19.5997 5.6831 19.5997 6.64807C19.5997 7.61306 20.3836 8.39816 21.3498 8.39816C22.3147 8.39816 23.0998 7.61428 23.0998 6.64807C23.0998 5.6831 22.3134 4.89799 21.3498 4.8992Z" fill="white"/>
</svg>
