<svg width="52" height="52" viewBox="0 0 52 52" fill="none" xmlns="http://www.w3.org/2000/svg">
<path d="M25.9987 47.6673C14.0325 47.6673 4.33203 37.9667 4.33203 26.0006C4.33203 14.0345 14.0325 4.33398 25.9987 4.33398C37.9648 4.33398 47.6654 14.0345 47.6654 26.0006C47.6654 37.9667 37.9648 47.6673 25.9987 47.6673ZM23.832 32.5006V36.834H28.1654V32.5006H23.832ZM28.1654 28.9367C31.2977 28.0044 33.582 25.1026 33.582 21.6673C33.582 17.4791 30.1869 14.084 25.9987 14.084C22.3197 14.084 19.2525 16.7039 18.5612 20.1798L22.8111 21.0298C23.1075 19.5401 24.422 18.4173 25.9987 18.4173C27.7936 18.4173 29.2487 19.8724 29.2487 21.6673C29.2487 23.4622 27.7936 24.9173 25.9987 24.9173C24.802 24.9173 23.832 25.8873 23.832 27.084V30.334H28.1654V28.9367Z" fill="#5A5A74"/>
</svg>
