<svg width="53" height="53" viewBox="0 0 53 53" fill="none" xmlns="http://www.w3.org/2000/svg">
<path d="M42.6031 13.25H44.1684C45.3881 13.25 46.3767 14.2387 46.3767 15.4584V30.9166C46.3767 32.1363 45.3881 33.1249 44.1684 33.1249H39.7517L30.5467 20.2379C29.4483 18.7003 27.4935 18.0317 25.6836 18.5746L20.1953 20.2212C18.639 20.688 16.952 20.2627 15.8031 19.1138L15.1566 18.4673C14.1712 17.4819 14.3336 15.8413 15.4931 15.0683L27.4204 7.11678C28.8757 6.14668 30.766 6.12656 32.2416 7.0655L41.4177 12.9048C41.7719 13.1303 42.1833 13.25 42.6031 13.25ZM11.1028 31.5676L7.53463 34.6898C6.4936 35.6005 6.53675 37.2333 7.62449 38.0882L18.977 47.0078C20.0372 47.8408 21.5898 47.5376 22.2587 46.367L23.8131 43.6468C24.7627 41.985 24.5339 39.9008 23.2464 38.4846L17.2792 31.9205C15.6604 30.1397 12.9139 29.9829 11.1028 31.5676ZM15.5603 11.0418H6.6263C5.40668 11.0418 4.41797 12.0305 4.41797 13.2502V29.8476C4.41797 30.7494 4.69346 31.6175 5.1913 32.3443C5.24411 32.2944 5.29812 32.2451 5.35335 32.1968L8.92149 29.0746C12.091 26.3014 16.8973 26.5759 19.7303 29.6923L25.6977 36.2564C27.9506 38.7345 28.351 42.382 26.6892 45.2902L25.2443 47.819C26.4874 48.29 27.9036 48.1838 29.0828 47.4762L38.8198 41.6341C39.9249 40.9709 40.2296 39.5064 39.481 38.4574L27.8504 22.1632C27.5757 21.7789 27.087 21.6117 26.6345 21.7474L21.1462 23.3939C18.4227 24.211 15.4705 23.4668 13.4599 21.4561L12.8134 20.8096C10.3499 18.3461 10.756 14.2447 13.6548 12.3121L15.5603 11.0418Z" fill="#5A5A74"/>
</svg>
