<svg width="21" height="24" viewBox="0 0 21 24" fill="none" xmlns="http://www.w3.org/2000/svg">
<path d="M15.1667 7.28626V15.75C15.1667 19.9382 11.7715 23.3333 7.58333 23.3333C3.39517 23.3333 0 19.9382 0 15.75C0 11.5618 3.39517 8.16667 7.58333 8.16667C8.18568 8.16667 8.77158 8.23689 9.33333 8.36959V12.0596C8.80297 11.8076 8.2096 11.6667 7.58333 11.6667C5.32817 11.6667 3.5 13.4948 3.5 15.75C3.5 18.0052 5.32817 19.8333 7.58333 19.8333C9.8385 19.8333 11.6667 18.0052 11.6667 15.75V0H15.1667C15.1667 3.22166 17.7784 5.83333 21 5.83333V9.33333C18.7928 9.33333 16.7645 8.56716 15.1667 7.28626Z" fill="white"/>
</svg>
