<svg width="49" height="49" viewBox="0 0 49 49" fill="none" xmlns="http://www.w3.org/2000/svg">
<path d="M40.8333 10.209C40.8333 13.5917 38.0912 16.334 34.7083 16.334C31.3255 16.334 28.5833 13.5917 28.5833 10.209C28.5833 6.82625 31.3255 4.08398 34.7083 4.08398C38.0912 4.08398 40.8333 6.82625 40.8333 10.209ZM14.2917 6.12565C9.78134 6.12565 6.125 9.78199 6.125 14.2923V18.3757H10.2083V14.2923C10.2083 12.0372 12.0365 10.209 14.2917 10.209H20.4167V6.12565H14.2917ZM34.7083 42.8757C39.2186 42.8757 42.875 39.2192 42.875 34.709V30.6257H38.7917V34.709C38.7917 36.9642 36.9636 38.7923 34.7083 38.7923H28.5833V42.8757H34.7083ZM14.2917 32.6673C17.6744 32.6673 20.4167 29.9252 20.4167 26.5423C20.4167 23.1595 17.6744 20.4173 14.2917 20.4173C10.9089 20.4173 8.16667 23.1595 8.16667 26.5423C8.16667 29.9252 10.9089 32.6673 14.2917 32.6673ZM34.7083 18.3757C30.1981 18.3757 26.5417 22.0321 26.5417 26.5423H42.875C42.875 22.0321 39.2186 18.3757 34.7083 18.3757ZM6.125 42.8757C6.125 38.3654 9.78134 34.709 14.2917 34.709C18.802 34.709 22.4583 38.3654 22.4583 42.8757H6.125Z" fill="#AE375C"/>
</svg>
