<svg width="49" height="49" viewBox="0 0 49 49" fill="none" xmlns="http://www.w3.org/2000/svg">
<g clip-path="url(#clip0_1116_9961)">
<path d="M29.1062 44.3951L24.5006 49.0006L19.895 44.3951C10.8407 42.3048 4.08398 34.1869 4.08398 24.5006C4.08398 13.2306 13.2306 4.08398 24.5006 4.08398C35.7706 4.08398 44.9173 13.2306 44.9173 24.5006C44.9173 34.1869 38.1606 42.3048 29.1062 44.3951ZM12.2983 31.4756C15.2944 35.9481 19.7948 38.7923 24.8267 38.7923C29.8586 38.7923 34.359 35.9481 37.3552 31.4756C34.073 28.4149 29.6685 26.5423 24.8267 26.5423C19.9849 26.5423 15.5805 28.4149 12.2983 31.4756ZM24.5006 22.459C27.8835 22.459 30.6256 19.7167 30.6256 16.334C30.6256 12.9512 27.8835 10.209 24.5006 10.209C21.1178 10.209 18.3757 12.9512 18.3757 16.334C18.3757 19.7167 21.1178 22.459 24.5006 22.459Z" fill="#AE375C"/>
</g>
<defs>
<clipPath id="clip0_1116_9961">
<rect width="49" height="49" fill="white"/>
</clipPath>
</defs>
</svg>
