<svg width="49" height="49" viewBox="0 0 49 49" fill="none" xmlns="http://www.w3.org/2000/svg">
<path d="M24.5006 8.16732C18.889 8.16732 13.9352 10.9976 10.9939 15.3132H16.334V19.3965H4.08398V7.14648H8.16732V12.2493C11.8909 7.29279 17.8196 4.08398 24.5006 4.08398C35.7764 4.08398 44.9173 13.2248 44.9173 24.5006H40.834C40.834 15.48 33.5213 8.16732 24.5006 8.16732ZM8.16732 24.5006C8.16732 33.5213 15.48 40.834 24.5006 40.834C30.1124 40.834 35.0661 38.0036 38.0075 33.6881H32.6673V29.6048H44.9173V41.8548H40.834V36.7519C37.1104 41.7084 31.1818 44.9173 24.5006 44.9173C13.2248 44.9173 4.08398 35.7764 4.08398 24.5006H8.16732Z" fill="#AE375C"/>
</svg>
