<svg width="16" height="16" viewBox="0 0 16 16" fill="none" xmlns="http://www.w3.org/2000/svg">
<path d="M8 16C3.58172 16 0 12.4182 0 8C0 3.58172 3.58172 0 8 0C12.4182 0 16 3.58172 16 8C16 12.4182 12.4182 16 8 16ZM6.16802 14.1339C5.39794 12.5007 4.92586 10.6994 4.82185 8.8H1.64951C1.9664 11.3412 3.77311 13.4198 6.16802 14.1339ZM6.42456 8.8C6.54488 10.751 7.10224 12.5838 8 14.2016C8.89776 12.5838 9.45512 10.751 9.57544 8.8H6.42456ZM14.3505 8.8H11.1782C11.0742 10.6994 10.6021 12.5007 9.832 14.1339C12.2269 13.4198 14.0336 11.3412 14.3505 8.8ZM1.64951 7.2H4.82185C4.92586 5.30062 5.39794 3.49926 6.16802 1.86605C3.77311 2.58026 1.9664 4.6588 1.64951 7.2ZM6.42456 7.2H9.57544C9.45512 5.24898 8.89776 3.4162 8 1.79839C7.10224 3.4162 6.54488 5.24898 6.42456 7.2ZM9.832 1.86605C10.6021 3.49926 11.0742 5.30062 11.1782 7.2H14.3505C14.0336 4.6588 12.2269 2.58026 9.832 1.86605Z" fill="#AD335A"/>
</svg>
